<svg width="22" height="21" viewBox="0 0 22 21" fill="none" xmlns="http://www.w3.org/2000/svg">
    <g opacity="1">
        <path fill-rule="evenodd" clip-rule="evenodd" d="M3.19629 10.5413C3.19629 9.59306 3.96586 8.82349 4.91408 8.82349C5.8623 8.82349 6.63187 9.59306 6.63187 10.5413C6.63187 11.4895 5.8623 12.2591 4.91408 12.2591C3.96586 12.2591 3.19629 11.4895 3.19629 10.5413ZM10.9264 8.82349C9.97813 8.82349 9.20856 9.59306 9.20856 10.5413C9.20856 11.4895 9.97813 12.2591 10.9264 12.2591C11.8746 12.2591 12.6441 11.4895 12.6441 10.5413C12.6441 9.59306 11.8746 8.82349 10.9264 8.82349ZM16.9386 8.82349C15.9904 8.82349 15.2208 9.59306 15.2208 10.5413C15.2208 11.4895 15.9904 12.2591 16.9386 12.2591C17.8868 12.2591 18.6564 11.4895 18.6564 10.5413C18.6564 9.59306 17.8868 8.82349 16.9386 8.82349Z" fill="black"/>
    </g>
</svg>
