<svg width="24" height="24" viewBox="0 0 24 24" fill="none" xmlns="http://www.w3.org/2000/svg">
    <path d="M12 9.52766e-05C8.81729 9.52766e-05 5.76519 1.26443 3.51471 3.51481C1.26433 5.76519 0 8.81767 0 12C0 15.1824 1.26433 18.2348 3.51471 20.4853C5.7651 22.7357 8.81757 24 12 24C15.1823 24 18.2347 22.7357 20.4852 20.4853C22.7356 18.2349 23.9999 15.1824 23.9999 12C23.9964 8.81852 22.731 5.76814 20.4813 3.51862C18.2316 1.2691 15.1813 0.00357143 11.9999 0L12 9.52766e-05ZM12 22.4001C9.24176 22.4001 6.59662 21.3045 4.64614 19.3541C2.69581 17.4036 1.60019 14.7583 1.60019 12.0003C1.60019 9.24233 2.69581 6.597 4.64614 4.64652C6.59667 2.69619 9.24195 1.60057 12 1.60057C14.758 1.60057 17.4033 2.69619 19.3538 4.64652C21.3041 6.59705 22.3997 9.24233 22.3997 12.0003C22.3967 14.7576 21.3 17.4013 19.3502 19.3508C17.4007 21.3006 14.757 22.3973 11.9998 22.4003L12 22.4001Z" fill="#863AAC"/>
    <path d="M11.9996 2.93359C9.59481 2.93359 7.28862 3.88878 5.58814 5.58912C3.888 7.28945 2.93262 9.59564 2.93262 12.0001C2.93262 14.4045 3.88795 16.7108 5.58814 18.411C7.28847 20.1114 9.59467 21.0665 11.9996 21.0665C14.4041 21.0665 16.7103 20.1114 18.4105 18.411C20.1109 16.7107 21.066 14.4045 21.066 12.0001C21.066 9.59564 20.1109 7.28931 18.4105 5.58912C16.7102 3.88878 14.404 2.93359 11.9996 2.93359ZM13.8221 16.6248C13.2987 17.2605 12.6511 17.7829 11.9192 18.1604C10.9186 18.6788 9.41453 18.5143 9.68315 17.5123L11.3262 11.3804C11.6335 10.2333 10.7336 10.673 10.1171 11.0793L10.1173 11.0791C9.94206 11.1857 9.7155 11.149 9.58266 10.9931C9.44967 10.8371 9.44967 10.6077 9.58248 10.4517C10.1061 9.81604 10.7536 9.29356 11.4854 8.91613C12.486 8.3977 13.9901 8.56215 13.7214 9.56418L12.0784 15.6961C11.7711 16.8432 12.671 16.4035 13.2875 15.9972V15.9974C13.4627 15.891 13.6893 15.9275 13.8221 16.0834C13.9551 16.2394 13.9551 16.469 13.8221 16.6248ZM14.4856 6.71359L14.4854 6.71341C14.4222 6.94964 14.2676 7.15091 14.0559 7.27331C13.8443 7.39552 13.5926 7.42863 13.3564 7.36539C13.1203 7.30196 12.9189 7.14757 12.7966 6.93589C12.6744 6.72402 12.6413 6.47253 12.7046 6.23632C12.7678 6.00008 12.9224 5.79882 13.1341 5.6766C13.3458 5.55439 13.5974 5.52128 13.8336 5.58453C14.0697 5.64777 14.2711 5.80235 14.3934 6.01403C14.5156 6.22571 14.5487 6.47738 14.4854 6.71346L14.4856 6.71359Z" fill="#863AAC"/>
</svg>

