<svg width="99" height="63" viewBox="0 0 99 63" fill="none" xmlns="http://www.w3.org/2000/svg">
    <path d="M15.6644 0H0V13.4099H15.6985C25.6185 13.4099 33.6893 21.5254 33.6893 31.5C33.6893 41.4746 25.6185 49.5894 15.6985 49.5894H0V63H15.6644C32.939 63 46.9925 48.8696 46.9925 31.5C46.9925 14.131 32.9384 0 15.6644 0ZM82.9703 49.093C73.3233 49.093 65.4735 41.2022 65.4735 31.5019C65.4735 21.8028 73.3215 13.9095 82.9703 13.9095H98.6669V0H83.0032C65.7285 0 51.6745 14.1304 51.6745 31.5C51.6745 48.869 65.7285 63 83.0032 63H98.6669V49.0911H82.9703V49.093Z" fill="white"/>
</svg>
