<svg width="98" height="24" viewBox="0 0 98 24" fill="none" xmlns="http://www.w3.org/2000/svg">
    <path d="M19.1645 18.8012H15.5964L17.8282 5.00177H21.3961L19.1645 18.8012Z" fill="#00579F"/>
    <path d="M32.099 5.33914C31.3953 5.05993 30.279 4.75165 28.8987 4.75165C25.3751 4.75165 22.8939 6.63062 22.8786 9.31697C22.8494 11.299 24.6552 12.3998 26.0058 13.0607C27.3862 13.736 27.8555 14.1767 27.8555 14.7787C27.8414 15.7031 26.74 16.1293 25.7127 16.1293C24.2881 16.1293 23.5249 15.9096 22.3649 15.3952L21.8951 15.1747L21.3958 18.2724C22.2326 18.6537 23.7744 18.992 25.3751 19.0068C29.119 19.0068 31.5564 17.1569 31.5853 14.2942C31.5995 12.7233 30.646 11.5196 28.5903 10.5361C27.3423 9.90466 26.578 9.47892 26.578 8.83289C26.5927 8.24559 27.2245 7.64405 28.6332 7.64405C29.7932 7.61458 30.6454 7.89341 31.2911 8.17242L31.6138 8.31895L32.099 5.33914Z" fill="#00579F"/>
    <path d="M36.8412 13.9125C37.1351 13.1198 38.2658 10.0516 38.2658 10.0516C38.2509 10.081 38.559 9.24418 38.7352 8.73044L38.9846 9.91947C38.9846 9.91947 39.6603 13.2226 39.807 13.9125C39.2493 13.9125 37.546 13.9125 36.8412 13.9125ZM41.2456 5.00177H38.4857C37.6346 5.00177 36.9879 5.25113 36.6207 6.14671L31.3208 18.801H35.0647C35.0647 18.801 35.6811 17.0978 35.8135 16.731C36.2243 16.731 39.8663 16.731 40.3947 16.731C40.4971 17.2154 40.8204 18.801 40.8204 18.801H44.1241L41.2456 5.00177Z" fill="#00579F"/>
    <path d="M12.6162 5.00177L9.12184 14.4116L8.74 12.5032C8.09397 10.3011 6.06789 7.90861 3.80688 6.71899L7.00757 18.7865H10.7807L16.3891 5.00177H12.6162Z" fill="#00579F"/>
    <path d="M5.87707 5.00177H0.136366L0.0776367 5.28059C4.55574 6.42573 7.52151 9.18603 8.74001 12.5038L7.49204 6.16173C7.28659 5.2804 6.65519 5.03084 5.87707 5.00177Z" fill="#FAA61A"/>
    <path d="M72.9526 23.7067V22.1299C72.9526 21.5267 72.5852 21.1318 71.9545 21.1318C71.6391 21.1318 71.2962 21.2359 71.0605 21.5788C70.8768 21.291 70.6135 21.1318 70.2185 21.1318C69.9552 21.1318 69.6919 21.2114 69.4837 21.4992V21.1838H68.9326V23.7067H69.4837V22.3136C69.4837 21.8666 69.7195 21.6553 70.0869 21.6553C70.4543 21.6553 70.638 21.8911 70.638 22.3136V23.7067H71.1891V22.3136C71.1891 21.8666 71.4524 21.6553 71.7922 21.6553C72.1596 21.6553 72.3433 21.8911 72.3433 22.3136V23.7067H72.9526ZM81.1273 21.1838H80.2333V20.4215H79.6822V21.1838H79.1831V21.6829H79.6822V22.8402C79.6822 23.4189 79.9179 23.7587 80.5486 23.7587C80.7844 23.7587 81.0477 23.6791 81.2314 23.575L81.0722 23.1004C80.913 23.2045 80.7293 23.2321 80.5976 23.2321C80.3343 23.2321 80.2302 23.0729 80.2302 22.8127V21.6829H81.1242V21.1838H81.1273ZM85.8055 21.1287C85.4902 21.1287 85.2789 21.2879 85.1473 21.4961V21.1808H84.5962V23.7036H85.1473V22.283C85.1473 21.8635 85.331 21.6247 85.6739 21.6247C85.778 21.6247 85.9096 21.6523 86.0168 21.6768L86.176 21.1502C86.0658 21.1287 85.9096 21.1287 85.8055 21.1287ZM78.7361 21.392C78.4728 21.2083 78.1054 21.1287 77.7105 21.1287C77.0797 21.1287 76.6603 21.4441 76.6603 21.9431C76.6603 22.3626 76.9756 22.6014 77.5268 22.6779L77.7901 22.7055C78.0779 22.7575 78.2371 22.8371 78.2371 22.9688C78.2371 23.1525 78.0258 23.2841 77.6584 23.2841C77.291 23.2841 77.0001 23.1525 76.8164 23.0208L76.5531 23.4403C76.8409 23.6516 77.2359 23.7556 77.6308 23.7556C78.3657 23.7556 78.7882 23.4127 78.7882 22.9412C78.7882 22.4942 78.4453 22.2585 77.9217 22.1789L77.6584 22.1513C77.4227 22.1238 77.239 22.0717 77.239 21.9156C77.239 21.7319 77.4227 21.6278 77.7135 21.6278C78.0289 21.6278 78.3442 21.7594 78.5034 21.839L78.7361 21.392ZM93.3985 21.1287C93.0831 21.1287 92.8719 21.2879 92.7402 21.4961V21.1808H92.1891V23.7036H92.7402V22.283C92.7402 21.8635 92.9239 21.6247 93.2668 21.6247C93.3709 21.6247 93.5026 21.6523 93.6098 21.6768L93.769 21.1563C93.6618 21.1287 93.5057 21.1287 93.3985 21.1287ZM86.3566 22.4452C86.3566 23.2076 86.8832 23.7587 87.6976 23.7587C88.0651 23.7587 88.3284 23.6791 88.5917 23.4709L88.3284 23.0239C88.1171 23.1831 87.9089 23.2597 87.6701 23.2597C87.2231 23.2597 86.9077 22.9443 86.9077 22.4452C86.9077 21.9707 87.2231 21.6553 87.6701 21.6308C87.9058 21.6308 88.1171 21.7104 88.3284 21.8666L88.5917 21.4196C88.3284 21.2083 88.0651 21.1318 87.6976 21.1318C86.8832 21.1287 86.3566 21.6829 86.3566 22.4452ZM91.4543 22.4452V21.1838H90.9032V21.4992C90.7195 21.2634 90.4562 21.1318 90.1133 21.1318C89.403 21.1318 88.8519 21.6829 88.8519 22.4452C88.8519 23.2076 89.403 23.7587 90.1133 23.7587C90.4807 23.7587 90.744 23.6271 90.9032 23.3913V23.7067H91.4543V22.4452ZM89.4306 22.4452C89.4306 21.9982 89.7184 21.6308 90.1929 21.6308C90.6399 21.6308 90.9553 21.9738 90.9553 22.4452C90.9553 22.8923 90.6399 23.2597 90.1929 23.2597C89.7214 23.2321 89.4306 22.8892 89.4306 22.4452ZM82.8357 21.1287C82.1009 21.1287 81.5743 21.6553 81.5743 22.4422C81.5743 23.2321 82.1009 23.7556 82.8633 23.7556C83.2307 23.7556 83.5981 23.6516 83.8889 23.4127L83.6256 23.0178C83.4144 23.177 83.1511 23.2811 82.8908 23.2811C82.5479 23.2811 82.2081 23.1219 82.1285 22.6779H83.993C83.993 22.5983 83.993 22.5463 83.993 22.4667C84.0175 21.6553 83.543 21.1287 82.8357 21.1287ZM82.8357 21.6033C83.1786 21.6033 83.4144 21.8145 83.4664 22.2064H82.1529C82.205 21.8666 82.4407 21.6033 82.8357 21.6033ZM96.5275 22.4452V20.1857H95.9764V21.4992C95.7927 21.2634 95.5294 21.1318 95.1865 21.1318C94.4762 21.1318 93.9251 21.6829 93.9251 22.4452C93.9251 23.2076 94.4762 23.7587 95.1865 23.7587C95.5539 23.7587 95.8172 23.6271 95.9764 23.3913V23.7067H96.5275V22.4452ZM94.5038 22.4452C94.5038 21.9982 94.7916 21.6308 95.2661 21.6308C95.7131 21.6308 96.0285 21.9738 96.0285 22.4452C96.0285 22.8923 95.7131 23.2597 95.2661 23.2597C94.7916 23.2321 94.5038 22.8892 94.5038 22.4452ZM76.0541 22.4452V21.1838H75.503V21.4992C75.3193 21.2634 75.056 21.1318 74.7131 21.1318C74.0028 21.1318 73.4517 21.6829 73.4517 22.4452C73.4517 23.2076 74.0028 23.7587 74.7131 23.7587C75.0805 23.7587 75.3438 23.6271 75.503 23.3913V23.7067H76.0541V22.4452ZM74.0058 22.4452C74.0058 21.9982 74.2936 21.6308 74.7682 21.6308C75.2152 21.6308 75.5305 21.9738 75.5305 22.4452C75.5305 22.8923 75.2152 23.2597 74.7682 23.2597C74.2936 23.2321 74.0058 22.8892 74.0058 22.4452Z" fill="black"/>
    <path d="M86.831 2.02429H78.5522V16.8979H86.831V2.02429Z" fill="#FF5A00"/>
    <path d="M79.1033 9.46068C79.1033 6.4388 80.524 3.75677 82.7039 2.02386C81.0995 0.76245 79.0758 9.15527e-05 76.8683 9.15527e-05C71.639 9.15527e-05 67.4077 4.23133 67.4077 9.46068C67.4077 14.69 71.639 18.9213 76.8683 18.9213C79.0758 18.9213 81.0995 18.1589 82.7039 16.8975C80.5209 15.1891 79.1033 12.4826 79.1033 9.46068Z" fill="#EB001B"/>
    <path d="M98.0003 9.46077C98.0003 14.6901 93.769 18.9214 88.5397 18.9214C86.3322 18.9214 84.3084 18.159 82.7041 16.8976C84.9116 15.1616 86.3046 12.4826 86.3046 9.46077C86.3046 6.43889 84.884 3.75686 82.7041 2.02395C84.3054 0.762541 86.3291 0.000183105 88.5366 0.000183105C93.769 0.000183105 98.0003 4.25898 98.0003 9.46077Z" fill="#F79E1B"/>
</svg>


